<svg width="56" height="57" viewBox="0 0 56 57" fill="none" xmlns="http://www.w3.org/2000/svg">
<g filter="url(#filter0_d_101_366)">
<circle cx="28" cy="24.9761" r="24" fill="#FF5555"/>
<path d="M28 14.9761L26.6985 20.1821C26.4445 21.1979 26.3176 21.7059 26.0531 22.1192C25.8192 22.4848 25.5087 22.7952 25.1431 23.0292C24.7298 23.2936 24.2218 23.4206 23.206 23.6746L18 24.9761L23.206 26.2776C24.2218 26.5315 24.7298 26.6585 25.1431 26.923C25.5087 27.1569 25.8192 27.4674 26.0531 27.833C26.3176 28.2463 26.4445 28.7542 26.6985 29.7701L28 34.9761L29.3015 29.7701C29.5555 28.7542 29.6824 28.2463 29.9469 27.833C30.1808 27.4674 30.4913 27.1569 30.8569 26.923C31.2702 26.6585 31.7782 26.5315 32.794 26.2776L38 24.9761L32.794 23.6746C31.7782 23.4206 31.2702 23.2936 30.8569 23.0292C30.4913 22.7952 30.1808 22.4848 29.9469 22.1192C29.6824 21.7059 29.5555 21.1979 29.3015 20.1821L28 14.9761Z" stroke="white" stroke-width="2" stroke-linecap="round" stroke-linejoin="round"/>
</g>
<defs>
<filter id="filter0_d_101_366" x="0" y="0.976074" width="56" height="56" filterUnits="userSpaceOnUse" color-interpolation-filters="sRGB">
<feFlood flood-opacity="0" result="BackgroundImageFix"/>
<feColorMatrix in="SourceAlpha" type="matrix" values="0 0 0 0 0 0 0 0 0 0 0 0 0 0 0 0 0 0 127 0" result="hardAlpha"/>
<feOffset dy="4"/>
<feGaussianBlur stdDeviation="2"/>
<feComposite in2="hardAlpha" operator="out"/>
<feColorMatrix type="matrix" values="0 0 0 0 0 0 0 0 0 0 0 0 0 0 0 0 0 0 0.25 0"/>
<feBlend mode="normal" in2="BackgroundImageFix" result="effect1_dropShadow_101_366"/>
<feBlend mode="normal" in="SourceGraphic" in2="effect1_dropShadow_101_366" result="shape"/>
</filter>
</defs>
</svg>
